<?xml version="1.0" encoding="UTF-8" standalone="no"?>
<!-- Generator: Adobe Illustrator 26.2.1, SVG Export Plug-In . SVG Version: 6.00 Build 0)  -->

<svg
   version="1.1"
   id="Layer_1"
   x="0px"
   y="0px"
   viewBox="0 0 28 28"
   style="enable-background:new 0 0 28 28;"
   xml:space="preserve"
   sodipodi:docname="request_unrated_inkscape.svg"
   inkscape:version="1.1.2 (b8e25be833, 2022-02-05)"
   xmlns:inkscape="http://www.inkscape.org/namespaces/inkscape"
   xmlns:sodipodi="http://sodipodi.sourceforge.net/DTD/sodipodi-0.dtd"
   xmlns="http://www.w3.org/2000/svg"
   xmlns:svg="http://www.w3.org/2000/svg">
   <defs
   id="defs835" />
   <sodipodi:namedview
   id="namedview833"
   pagecolor="#ffffff"
   bordercolor="#666666"
   borderopacity="1.0"
   inkscape:pageshadow="2"
   inkscape:pageopacity="0.0"
   inkscape:pagecheckerboard="0"
   showgrid="false"
   inkscape:zoom="8"
   inkscape:cx="-8.8125"
   inkscape:cy="14"
   inkscape:window-width="1920"
   inkscape:window-height="1017"
   inkscape:window-x="-8"
   inkscape:window-y="-8"
   inkscape:window-maximized="1"
   inkscape:current-layer="Layer_1" />
   <path
   d="M23,16h3v10h-3V16z M12,5h2v6h-2V5z M10,7h6v2h-6V7z M4,20h10v4H4V20z M4,14h10v4H4V14z M4,8h5v4H4V8z M2,26h24v2H2V26z   M0,4h2v24H0V4z M0,2h10v2H0V2z"
   id="path826" />

      <path
   id="path827"
   d="M 21.562172,6.9238144 C 22.337641,5.9467482 23.828151,5.3703495 24.69426,4.5057513 25.610722,3.5989776 25.0971,1.9049276 22.498778,1.9049276 c -1.702004,0 -2.537898,0.8997444 -2.890384,1.6448452 L 17,2.7835843 C 17.715042,1.2863533 19.658748,0 22.488707,0 c 2.366689,0 3.988123,0.75213013 4.813945,1.69405 0.704973,0.8083642 1.117884,2.3196536 0.03021,3.444334 -1.208523,1.2441779 -2.36669,1.6237575 -2.991094,2.4250924 -0.251775,0.3233457 -0.352485,0.5342233 -0.352485,1.5745527 H 21.07876 C 21.06872,8.5897474 20.947839,7.6970322 21.56217,6.9238144 Z m 2.950808,5.0259166 c 0,0.773217 -0.906391,1.40585 -2.014202,1.40585 -1.107813,0 -2.014205,-0.632633 -2.014205,-1.40585 0,-0.773219 0.906392,-1.405852 2.014205,-1.405852 1.107811,0 2.014202,0.632633 2.014202,1.405852 z" />
  
</svg>
