<?xml version="1.0" encoding="UTF-8" standalone="no"?>
<!-- Generator: Adobe Illustrator 26.2.1, SVG Export Plug-In . SVG Version: 6.00 Build 0)  -->

<svg
   version="1.1"
   id="Layer_1"
   x="0px"
   y="0px"
   viewBox="0 0 28 28"
   style="enable-background:new 0 0 28 28;"
   xml:space="preserve"
   sodipodi:docname="request_faves_optimized2.svg"
   inkscape:version="1.1.2 (b8e25be833, 2022-02-05)"
   xmlns:inkscape="http://www.inkscape.org/namespaces/inkscape"
   xmlns:sodipodi="http://sodipodi.sourceforge.net/DTD/sodipodi-0.dtd"
   xmlns="http://www.w3.org/2000/svg"
   xmlns:svg="http://www.w3.org/2000/svg"><defs
   id="defs835" /><sodipodi:namedview
   id="namedview833"
   pagecolor="#ffffff"
   bordercolor="#666666"
   borderopacity="1.0"
   inkscape:pageshadow="2"
   inkscape:pageopacity="0.0"
   inkscape:pagecheckerboard="0"
   showgrid="false"
   inkscape:zoom="28.857143"
   inkscape:cx="13.982673"
   inkscape:cy="14"
   inkscape:window-width="1920"
   inkscape:window-height="1017"
   inkscape:window-x="-8"
   inkscape:window-y="-8"
   inkscape:window-maximized="1"
   inkscape:current-layer="Layer_1" />
<style
   type="text/css"
   id="style824">
	.st0{fill:none;}
</style>
<path
   d="M23,16h3v10h-3V16z M12,5h2v6h-2V5z M10,7h6v2h-6V7z M4,20h10v4H4V20z M4,14h10v4H4V14z M4,8h5v4H4V8z M2,26h24v2H2V26z   M0,4h2v24H0V4z M0,2h10v2H0V2z"
   id="path826" />

<path
   d="M 22.080693,10.762376 21.219703,10.00901 C 18.206238,7.3184159 16.161386,5.488812 16.161386,3.228713 16.161386,1.399109 17.560495,0 19.390099,0 20.358713,0 21.43495,0.43049505 22.080693,1.1838615 22.726436,0.43049505 23.69505,0 24.771287,0 26.600891,0 28,1.399109 28,3.228713 28,5.488812 25.955149,7.2107922 22.941683,10.00901 Z"
   id="path830" />
</svg>
