<svg width="24" height="24" xml:space="preserve" xmlns="http://www.w3.org/2000/svg"><path d="M18.429 13.429h2.143v7.143h-2.143zm-7.857-7.857H12v4.286h-1.43zM9.143 7h4.286v1.428H9.143zm-4.285 9.285H12v2.857H4.857zm0-4.286H12v2.858H4.857zm0-4.285h3.571v2.857H4.858zM3.429 20.572h17.143V22H3.429zM2 4.858H3.43V22H2zm0-1.429h7.143v1.429H2zM17.772 9.687l-.615-.538c-2.152-1.922-3.613-3.228-3.613-4.843C13.544 3 14.544 2 15.85 2c.692 0 1.46.307 1.922.846.461-.539 1.153-.846 1.922-.846C21 2 22 3 22 4.306c0 1.615-1.46 2.844-3.613 4.843z"/></svg>