<?xml version="1.0" encoding="UTF-8"?>
<!-- Generator: Adobe Illustrator 26.2.1, SVG Export Plug-In . SVG Version: 6.00 Build 0)  -->
<svg width="24" height="24" version="1.1" viewBox="0 0 24 24" xml:space="preserve" xmlns="http://www.w3.org/2000/svg">
   
   
   <path d="m18.429 13.429h2.1429v7.1429h-2.1429zm-7.8571-7.8571h1.4286v4.2857h-1.4286zm-1.4286 1.4286h4.2857v1.4286h-4.2857zm-4.2857 9.2857h7.1429v2.8571h-7.1429zm0-4.2857h7.1429v2.8571h-7.1429zm0-4.2857h3.5714v2.8571h-3.5714zm-1.4286 12.857h17.143v1.4286h-17.143zm-1.4286-15.714h1.4286v17.143h-1.4286zm0-1.4286h7.1429v1.4286h-7.1429z"/>

      <path d="m17.402 6.9456c0.55391-0.6979 1.6186-1.1096 2.2372-1.7272 0.65462-0.6477 0.28774-1.8577-1.5682-1.8577-1.2157 0-1.8128 0.64267-2.0646 1.1749l-1.8631-0.54728c0.51074-1.0695 1.8991-1.9883 3.9205-1.9883 1.6905 0 2.8487 0.53724 3.4385 1.21 0.50355 0.5774 0.79849 1.6569 0.02158 2.4602-0.86323 0.8887-1.6905 1.1598-2.1365 1.7322-0.17984 0.23096-0.25178 0.38159-0.25178 1.1247h-2.0789c-0.0072-0.39163-0.09352-1.0293 0.34529-1.5816zm2.1077 3.5899c0 0.5523-0.64742 1.0042-1.4387 1.0042-0.7913 0-1.4387-0.45188-1.4387-1.0042 0-0.5523 0.64742-1.0042 1.4387-1.0042 0.79129 0 1.4387 0.45188 1.4387 1.0042z"/>
  
</svg>
