<?xml version="1.0" encoding="UTF-8" standalone="no"?>
<!-- Generator: Adobe Illustrator 26.2.1, SVG Export Plug-In . SVG Version: 6.00 Build 0)  -->

<svg
   version="1.1"
   id="Layer_1"
   x="0px"
   y="0px"
   viewBox="0 0 28 28"
   style="enable-background:new 0 0 28 28;"
   xml:space="preserve"
   sodipodi:docname="request_clear_inkscape.svg"
   inkscape:version="1.1.2 (b8e25be833, 2022-02-05)"
   xmlns:inkscape="http://www.inkscape.org/namespaces/inkscape"
   xmlns:sodipodi="http://sodipodi.sourceforge.net/DTD/sodipodi-0.dtd"
   xmlns="http://www.w3.org/2000/svg"
   xmlns:svg="http://www.w3.org/2000/svg"><defs
   id="defs835" /><sodipodi:namedview
   id="namedview833"
   pagecolor="#ffffff"
   bordercolor="#666666"
   borderopacity="1.0"
   inkscape:pageshadow="2"
   inkscape:pageopacity="0.0"
   inkscape:pagecheckerboard="0"
   showgrid="false"
   inkscape:zoom="14.428572"
   inkscape:cx="14.242574"
   inkscape:cy="14.207921"
   inkscape:window-width="1920"
   inkscape:window-height="1017"
   inkscape:window-x="-8"
   inkscape:window-y="-8"
   inkscape:window-maximized="1"
   inkscape:current-layer="Layer_1" />

<path
   id="path826"
   d="m 23,16 h 3 V 26 H 23 Z M 4,20 h 10 v 4 H 4 Z m 0,-6 h 10 v 4 H 4 Z M 4,8 h 10 v 4 H 4 Z M 2,26 h 24 v 2 H 2 Z M 0,4 H 2 V 28 H 0 Z M 0,2 H 10 V 4 H 0 Z" />

   
    <path
   d="M 28,1.2306279 26.769372,0 21.8905,4.8788721 17.011628,0 15.781,1.2306279 20.659872,6.1095 15.781,10.988372 17.011628,12.219 21.8905,7.340128 26.769372,12.219 28,10.988372 23.121128,6.1095 Z"
   id="path1187" />
</svg>
