<?xml version="1.0" encoding="UTF-8" standalone="no"?>
<!-- Created with Inkscape (http://www.inkscape.org/) -->

<svg
   width="320"
   height="180"
   viewBox="0 0 84.666664 47.625001"
   version="1.1"
   id="svg5"
   inkscape:version="1.1.2 (b8e25be833, 2022-02-05)"
   sodipodi:docname="banner.svg"
   inkscape:export-filename="C:\Users\Senxian\Downloads\banner.png"
   inkscape:export-xdpi="96"
   inkscape:export-ydpi="96"
   xmlns:inkscape="http://www.inkscape.org/namespaces/inkscape"
   xmlns:sodipodi="http://sodipodi.sourceforge.net/DTD/sodipodi-0.dtd"
   xmlns="http://www.w3.org/2000/svg"
   xmlns:svg="http://www.w3.org/2000/svg">
  <sodipodi:namedview
     id="namedview7"
     pagecolor="#0288d1"
     bordercolor="#666666"
     borderopacity="1.0"
     inkscape:pageshadow="2"
     inkscape:pageopacity="1"
     inkscape:pagecheckerboard="0"
     inkscape:document-units="mm"
     showgrid="true"
     units="px"
     height="180px"
     inkscape:zoom="2.9611953"
     inkscape:cx="187.59317"
     inkscape:cy="100.63504"
     inkscape:window-width="1920"
     inkscape:window-height="1017"
     inkscape:window-x="-8"
     inkscape:window-y="-8"
     inkscape:window-maximized="1"
     inkscape:current-layer="layer1" />
  <defs
     id="defs2" />
  <g
     inkscape:label="Layer 1"
     inkscape:groupmode="layer"
     id="layer1">
    <g
       id="g51"
       transform="matrix(0.37458795,0,0,0.37458795,-3.1239843,3.5360543)"
       inkscape:export-filename="C:\Users\Senxian\Downloads\g17515.png"
       inkscape:export-xdpi="96"
       inkscape:export-ydpi="96">
      <g
         id="g16">
        <path
           id="path"
           d="m 54.13,54.13 m -33.37,0 c 0,-8.85 3.52,-17.34 9.77,-23.6 6.25,-6.26 14.75,-9.77 23.6,-9.77 8.85,0 17.34,3.52 23.6,9.77 6.26,6.25 9.77,14.75 9.77,23.6 0,8.85 -3.52,17.34 -9.77,23.6 -6.25,6.26 -14.75,9.77 -23.6,9.77 -8.85,0 -17.34,-3.52 -23.6,-9.77 -6.26,-6.25 -9.77,-14.75 -9.77,-23.6"
           fill="#0288d1" />
        <path
           id="inner-cast-shadow"
           d="m 54.13,54.13 m -29.36,0 c 0,-7.7865 3.097,-15.256 8.596,-20.764 5.499,-5.5078 12.978,-8.596 20.764,-8.596 7.786,0 15.256,3.097 20.764,8.596 5.5078,5.499 8.596,12.978 8.596,20.764 0,7.7865 -3.097,15.256 -8.596,20.764 C 69.395,80.4018 61.916,83.49 54.13,83.49 46.344,83.49 38.874,80.393 33.366,74.894 27.8582,69.395 24.77,61.916 24.77,54.13"
           fill="#0e3155"
           fill-opacity="0.2"
           fill-rule="evenodd"
           stroke="#00000000" />
        <path
           id="cast-shadow"
           d="m 75.47,33.16 80.22,80.22 c 11.68,11.69 11.68,30.63 0,42.31 -11.69,11.68 -30.63,11.68 -42.31,0 L 33.16,75.47 c -11.68,-11.68 -11.68,-30.63 0,-42.31 11.68,-11.68 30.63,-11.68 42.31,0 z"
           display="none"
           fill="#0e3155"
           fill-opacity="0.2"
           fill-rule="evenodd"
           stroke="#00000000" />
      </g>
      <g
         fill="#232323"
         fill-opacity="0.23"
         stroke="#00000000"
         stroke-opacity="0.23"
         id="g24">
        <path
           d="m 42.52,60.79 c -0.05,0.01 0.55,-5.51 3.62,-13.87 1.49,-4.18 3.46,-9.08 5.9,-14.41 0.61,-1.33 1.25,-2.69 1.92,-4.08 l 1.25,-2.57 1.91,3.79 c 0.36,0.7 0.72,1.4 1.07,2.12 1.42,2.86 2.84,5.84 4.2,8.95 2.69,6.22 5.04,12.26 6.25,18.15 l 0.19,1.06 c 0,0 -1.18,1.22 -1.53,1.58 -0.51,0.5 -1.07,1.02 -1.7,1.48 -1.26,0.93 -2.89,1.42 -4.32,1.35 -1.44,0 -2.9,-0.49 -3.97,-1.3 -1.08,-0.79 -1.84,-1.73 -2.58,-2.52 -2.7,-3.46 -6.84,-3.3 -8.92,-2.27 -2.13,1.14 -2.99,2.33 -3.03,2.26 0.06,0.06 0.73,-1.2 2.84,-2.62 1.08,-0.67 2.66,-1.11 4.49,-1 1.86,0.02 3.95,1.11 5.53,2.72 1.6,1.58 3.25,3.17 5.62,2.96 1.16,-0.03 2.21,-0.42 3.15,-1.17 0.47,-0.38 0.93,-0.84 1.4,-1.36 0.22,-0.23 0.7,-0.74 0.7,-0.74 0,0 -3.83,-11.42 -6.48,-17.56 -1.35,-3.07 -2.71,-6.04 -4.06,-8.9 -0.27,-0.57 -0.8,-1.69 -0.8,-1.69 0,0 -0.52,1 -1.18,2.3 -2.63,5.18 -4.89,9.92 -6.66,13.94 -3.63,8.03 -4.86,13.38 -4.81,13.39 z"
           id="path18" />
        <path
           d="m 68.5,66.16 c -0.03,0.31 -0.06,0.62 -0.11,0.92 -0.08,0.62 -0.19,1.24 -0.32,1.86 -0.27,1.24 -0.65,2.48 -1.14,3.7 -1.88,4.83 -6.09,8.98 -10.97,9.43 -2.36,0.23 -4.64,-0.32 -6.43,-1.32 -1.79,-1.02 -3.14,-2.38 -4.14,-3.74 -1.99,-2.75 -2.73,-5.39 -3.11,-7.16 -0.36,-1.8 -0.37,-2.81 -0.4,-2.8 0.15,-0.14 0.43,4.32 4.51,9.15 2,2.32 5.43,4.37 9.29,3.72 3.82,-0.57 7.18,-3.96 8.88,-8.25 0.36,-0.88 0.89,-2.67 0.89,-2.67 0,0 -1.3,1.39 -3.87,1.53 -2.4,0.27 -4.88,-0.67 -6.32,-2.16 -1.48,-1.42 -2.44,-2.84 -3.69,-3.63 -2.52,-1.57 -5.42,-1.01 -6.82,-0.08 -1.5,0.95 -2.17,1.75 -2.2,1.72 0.04,0.03 0.55,-0.85 1.97,-2.05 1.38,-1.16 4.4,-2.29 7.7,-0.7 1.6,0.83 2.82,2.32 4.18,3.41 1.34,1.15 3.05,1.6 4.91,1.34 1.84,-0.24 4.16,-1.12 5.87,-2.88 l 1.55,-1.29 -0.22,1.97 z"
           id="path20" />
        <path
           d="M 55,84.48 C 38.22,84.48 24.56,70.8 24.56,53.99 24.56,37.18 38.21,23.5 55,23.5 71.78,23.5 85.44,37.18 85.44,53.99 85.44,70.8 71.79,84.48 55,84.48 Z m 0,-58.62 c -15.49,0 -28.08,12.62 -28.08,28.13 0,15.51 12.6,28.13 28.08,28.13 15.49,0 28.09,-12.62 28.09,-28.13 C 83.09,38.48 70.49,25.86 55,25.86 Z"
           id="path22" />
      </g>
      <g
         fill="#ffffff"
         stroke="#00000000"
         id="g32">
        <path
           d="m 41.52,60.79 c -0.05,0.01 0.55,-5.51 3.62,-13.87 1.49,-4.18 3.46,-9.08 5.9,-14.41 0.61,-1.33 1.25,-2.69 1.92,-4.08 l 1.25,-2.57 1.91,3.79 c 0.36,0.7 0.72,1.4 1.07,2.12 1.42,2.86 2.84,5.84 4.2,8.95 2.69,6.22 5.04,12.26 6.25,18.15 l 0.19,1.06 c 0,0 -1.18,1.22 -1.53,1.58 -0.51,0.5 -1.07,1.02 -1.7,1.48 -1.26,0.93 -2.89,1.42 -4.32,1.35 -1.44,0 -2.9,-0.49 -3.97,-1.3 -1.08,-0.79 -1.84,-1.73 -2.58,-2.52 -2.7,-3.46 -6.84,-3.3 -8.92,-2.27 -2.13,1.14 -2.99,2.33 -3.03,2.26 0.06,0.06 0.73,-1.2 2.84,-2.62 1.08,-0.67 2.66,-1.11 4.49,-1 1.86,0.02 3.95,1.11 5.53,2.72 1.6,1.58 3.25,3.17 5.62,2.96 1.16,-0.03 2.21,-0.42 3.15,-1.17 0.47,-0.38 0.93,-0.84 1.4,-1.36 0.22,-0.23 0.7,-0.74 0.7,-0.74 0,0 -3.83,-11.42 -6.48,-17.56 -1.35,-3.07 -2.71,-6.04 -4.06,-8.9 -0.27,-0.57 -0.8,-1.69 -0.8,-1.69 0,0 -0.52,1 -1.18,2.3 -2.63,5.18 -4.89,9.92 -6.66,13.94 -3.63,8.03 -4.86,13.38 -4.81,13.39 z"
           id="path26" />
        <path
           d="m 67.5,66.16 c -0.03,0.31 -0.06,0.62 -0.11,0.92 -0.08,0.62 -0.19,1.24 -0.32,1.86 -0.27,1.24 -0.65,2.48 -1.14,3.7 -1.88,4.83 -6.09,8.98 -10.97,9.43 -2.36,0.23 -4.64,-0.32 -6.43,-1.32 -1.79,-1.02 -3.14,-2.38 -4.14,-3.74 -1.99,-2.75 -2.73,-5.39 -3.11,-7.16 -0.36,-1.8 -0.37,-2.81 -0.4,-2.8 0.15,-0.14 0.43,4.32 4.51,9.15 2,2.32 5.43,4.37 9.29,3.72 3.82,-0.57 7.18,-3.96 8.88,-8.25 0.36,-0.88 0.89,-2.67 0.89,-2.67 0,0 -1.3,1.39 -3.87,1.53 -2.4,0.27 -4.88,-0.67 -6.32,-2.16 -1.48,-1.42 -2.44,-2.84 -3.69,-3.63 -2.52,-1.57 -5.42,-1.01 -6.82,-0.08 -1.5,0.95 -2.17,1.75 -2.2,1.72 0.04,0.03 0.55,-0.85 1.97,-2.05 1.38,-1.16 4.4,-2.29 7.7,-0.7 1.6,0.83 2.82,2.32 4.18,3.41 1.34,1.15 3.05,1.6 4.91,1.34 1.84,-0.24 4.16,-1.12 5.87,-2.88 l 1.55,-1.29 -0.22,1.97 z"
           id="path28" />
        <path
           d="M 54,84.48 C 37.22,84.48 23.56,70.8 23.56,53.99 23.56,37.18 37.21,23.5 54,23.5 70.78,23.5 84.44,37.18 84.44,53.99 84.44,70.8 70.79,84.48 54,84.48 Z m 0,-58.62 c -15.49,0 -28.08,12.62 -28.08,28.13 0,15.51 12.6,28.13 28.08,28.13 15.49,0 28.09,-12.62 28.09,-28.13 C 82.09,38.48 69.49,25.86 54,25.86 Z"
           id="path30" />
      </g>
    </g>
    <g
       id="g17515"
       inkscape:export-filename="C:\Users\Senxian\Downloads\g17515.png"
       inkscape:export-xdpi="96"
       inkscape:export-ydpi="96">
      <text
         xml:space="preserve"
         style="font-style:normal;font-weight:normal;font-size:12.7px;line-height:1.25;font-family:sans-serif;opacity:0.23;fill:#232323;fill-opacity:1;stroke:none;stroke-width:0.264583"
         x="32.513195"
         y="28.489426"
         id="text1018"><tspan
           sodipodi:role="line"
           id="tspan1016"
           style="font-style:normal;font-variant:normal;font-weight:normal;font-stretch:normal;font-size:12.7px;font-family:'Roboto Condensed';-inkscape-font-specification:'Roboto Condensed, ';fill:#232323;fill-opacity:1;stroke-width:0.264583"
           x="32.513195"
           y="28.489426">Rainwave</tspan></text>
      <text
         xml:space="preserve"
         style="font-style:normal;font-weight:normal;font-size:12.7px;line-height:1.25;font-family:sans-serif;fill:#000000;fill-opacity:1;stroke:none;stroke-width:0.264583"
         x="32.155819"
         y="28.16448"
         id="text1018-3"><tspan
           sodipodi:role="line"
           id="tspan1016-0"
           style="font-style:normal;font-variant:normal;font-weight:normal;font-stretch:normal;font-size:12.7px;font-family:'Roboto Condensed';-inkscape-font-specification:'Roboto Condensed, ';fill:#ffffff;stroke-width:0.264583"
           x="32.155819"
           y="28.16448">Rainwave</tspan></text>
    </g>
  </g>
</svg>
