<?xml version="1.0" encoding="UTF-8" standalone="no"?>
<svg
   id="vector"
   version="1.1"
   viewBox="0 0 108 108"
   sodipodi:docname="launcher_icon.svg"
   inkscape:version="1.1.2 (b8e25be833, 2022-02-05)"
   xmlns:inkscape="http://www.inkscape.org/namespaces/inkscape"
   xmlns:sodipodi="http://sodipodi.sourceforge.net/DTD/sodipodi-0.dtd"
   xmlns="http://www.w3.org/2000/svg"
   xmlns:svg="http://www.w3.org/2000/svg">
  <defs
     id="defs137" />
  <sodipodi:namedview
     id="namedview135"
     pagecolor="#ffffff"
     bordercolor="#666666"
     borderopacity="1.0"
     inkscape:pageshadow="2"
     inkscape:pageopacity="0.0"
     inkscape:pagecheckerboard="0"
     showgrid="false"
     inkscape:zoom="7.4814815"
     inkscape:cx="53.933168"
     inkscape:cy="54.80198"
     inkscape:window-width="1920"
     inkscape:window-height="1017"
     inkscape:window-x="-8"
     inkscape:window-y="-8"
     inkscape:window-maximized="1"
     inkscape:current-layer="vector" />
  <g
     id="g116">
    <path
       id="path"
       d="m 54,54 m -36.043267,0 c 0,-9.558973 3.801986,-18.729105 10.552674,-25.490593 C 35.260092,21.747919 44.441027,17.956734 54,17.956734 c 9.558973,0 18.729105,3.801986 25.490593,10.552673 6.761488,6.750685 10.552674,15.93162 10.552674,25.490593 0,9.558973 -3.801986,18.729105 -10.552674,25.490593 C 72.739908,86.252081 63.558973,90.043267 54,90.043267 c -9.558973,0 -18.729105,-3.801986 -25.490593,-10.552674 C 21.747919,72.739907 17.956733,63.558973 17.956733,54"
       fill="#1f95e5" />
    <path
       id="inner-cast-shadow"
       d="m54.13 54.13m-29.36 0c0-7.7865 3.097-15.256 8.596-20.764 5.499-5.5078 12.978-8.596 20.764-8.596s15.256 3.097 20.764 8.596c5.5078 5.499 8.596 12.978 8.596 20.764 0 7.7865-3.097 15.256-8.596 20.764-5.499 5.5078-12.978 8.596-20.764 8.596s-15.256-3.097-20.764-8.596c-5.5078-5.499-8.596-12.978-8.596-20.764"
       fill="#0e3155"
       fill-opacity=".2"
       fill-rule="evenodd"
       stroke="#00000000" />
    <path
       id="cast-shadow"
       d="m75.47 33.16 80.22 80.22c11.68 11.69 11.68 30.63 0 42.31-11.69 11.68-30.63 11.68-42.31 0l-80.22-80.22c-11.68-11.68-11.68-30.63 0-42.31s30.63-11.68 42.31 0z"
       display="none"
       fill="#0e3155"
       fill-opacity=".2"
       fill-rule="evenodd"
       stroke="#00000000" />
  </g>
  <g
     fill="#232323"
     fill-opacity=".23"
     stroke="#00000000"
     stroke-opacity=".23"
     id="g124">
    <path
       d="m42.52 60.79c-0.05 0.01 0.55-5.51 3.62-13.87 1.49-4.18 3.46-9.08 5.9-14.41 0.61-1.33 1.25-2.69 1.92-4.08l1.25-2.57 1.91 3.79c0.36 0.7 0.72 1.4 1.07 2.12 1.42 2.86 2.84 5.84 4.2 8.95 2.69 6.22 5.04 12.26 6.25 18.15l0.19 1.06s-1.18 1.22-1.53 1.58c-0.51 0.5-1.07 1.02-1.7 1.48-1.26 0.93-2.89 1.42-4.32 1.35-1.44 0-2.9-0.49-3.97-1.3-1.08-0.79-1.84-1.73-2.58-2.52-2.7-3.46-6.84-3.3-8.92-2.27-2.13 1.14-2.99 2.33-3.03 2.26 0.06 0.06 0.73-1.2 2.84-2.62 1.08-0.67 2.66-1.11 4.49-1 1.86 0.02 3.95 1.11 5.53 2.72 1.6 1.58 3.25 3.17 5.62 2.96 1.16-0.03 2.21-0.42 3.15-1.17 0.47-0.38 0.93-0.84 1.4-1.36 0.22-0.23 0.7-0.74 0.7-0.74s-3.83-11.42-6.48-17.56c-1.35-3.07-2.71-6.04-4.06-8.9-0.27-0.57-0.8-1.69-0.8-1.69s-0.52 1-1.18 2.3c-2.63 5.18-4.89 9.92-6.66 13.94-3.63 8.03-4.86 13.38-4.81 13.39z"
       id="path118" />
    <path
       d="m68.5 66.16c-0.03 0.31-0.06 0.62-0.11 0.92-0.08 0.62-0.19 1.24-0.32 1.86-0.27 1.24-0.65 2.48-1.14 3.7-1.88 4.83-6.09 8.98-10.97 9.43-2.36 0.23-4.64-0.32-6.43-1.32-1.79-1.02-3.14-2.38-4.14-3.74-1.99-2.75-2.73-5.39-3.11-7.16-0.36-1.8-0.37-2.81-0.4-2.8 0.15-0.14 0.43 4.32 4.51 9.15 2 2.32 5.43 4.37 9.29 3.72 3.82-0.57 7.18-3.96 8.88-8.25 0.36-0.88 0.89-2.67 0.89-2.67s-1.3 1.39-3.87 1.53c-2.4 0.27-4.88-0.67-6.32-2.16-1.48-1.42-2.44-2.84-3.69-3.63-2.52-1.57-5.42-1.01-6.82-0.08-1.5 0.95-2.17 1.75-2.2 1.72 0.04 0.03 0.55-0.85 1.97-2.05 1.38-1.16 4.4-2.29 7.7-0.7 1.6 0.83 2.82 2.32 4.18 3.41 1.34 1.15 3.05 1.6 4.91 1.34 1.84-0.24 4.16-1.12 5.87-2.88l1.55-1.29-0.22 1.97z"
       id="path120" />
    <path
       d="m55 84.48c-16.78 0-30.44-13.68-30.44-30.49s13.65-30.49 30.44-30.49c16.78 0 30.44 13.68 30.44 30.49s-13.65 30.49-30.44 30.49zm0-58.62c-15.49 0-28.08 12.62-28.08 28.13s12.6 28.13 28.08 28.13c15.49 0 28.09-12.62 28.09-28.13s-12.6-28.13-28.09-28.13z"
       id="path122" />
  </g>
  <g
     fill="#fff"
     stroke="#00000000"
     id="g132">
    <path
       d="m41.52 60.79c-0.05 0.01 0.55-5.51 3.62-13.87 1.49-4.18 3.46-9.08 5.9-14.41 0.61-1.33 1.25-2.69 1.92-4.08l1.25-2.57 1.91 3.79c0.36 0.7 0.72 1.4 1.07 2.12 1.42 2.86 2.84 5.84 4.2 8.95 2.69 6.22 5.04 12.26 6.25 18.15l0.19 1.06s-1.18 1.22-1.53 1.58c-0.51 0.5-1.07 1.02-1.7 1.48-1.26 0.93-2.89 1.42-4.32 1.35-1.44 0-2.9-0.49-3.97-1.3-1.08-0.79-1.84-1.73-2.58-2.52-2.7-3.46-6.84-3.3-8.92-2.27-2.13 1.14-2.99 2.33-3.03 2.26 0.06 0.06 0.73-1.2 2.84-2.62 1.08-0.67 2.66-1.11 4.49-1 1.86 0.02 3.95 1.11 5.53 2.72 1.6 1.58 3.25 3.17 5.62 2.96 1.16-0.03 2.21-0.42 3.15-1.17 0.47-0.38 0.93-0.84 1.4-1.36 0.22-0.23 0.7-0.74 0.7-0.74s-3.83-11.42-6.48-17.56c-1.35-3.07-2.71-6.04-4.06-8.9-0.27-0.57-0.8-1.69-0.8-1.69s-0.52 1-1.18 2.3c-2.63 5.18-4.89 9.92-6.66 13.94-3.63 8.03-4.86 13.38-4.81 13.39z"
       id="path126" />
    <path
       d="m67.5 66.16c-0.03 0.31-0.06 0.62-0.11 0.92-0.08 0.62-0.19 1.24-0.32 1.86-0.27 1.24-0.65 2.48-1.14 3.7-1.88 4.83-6.09 8.98-10.97 9.43-2.36 0.23-4.64-0.32-6.43-1.32-1.79-1.02-3.14-2.38-4.14-3.74-1.99-2.75-2.73-5.39-3.11-7.16-0.36-1.8-0.37-2.81-0.4-2.8 0.15-0.14 0.43 4.32 4.51 9.15 2 2.32 5.43 4.37 9.29 3.72 3.82-0.57 7.18-3.96 8.88-8.25 0.36-0.88 0.89-2.67 0.89-2.67s-1.3 1.39-3.87 1.53c-2.4 0.27-4.88-0.67-6.32-2.16-1.48-1.42-2.44-2.84-3.69-3.63-2.52-1.57-5.42-1.01-6.82-0.08-1.5 0.95-2.17 1.75-2.2 1.72 0.04 0.03 0.55-0.85 1.97-2.05 1.38-1.16 4.4-2.29 7.7-0.7 1.6 0.83 2.82 2.32 4.18 3.41 1.34 1.15 3.05 1.6 4.91 1.34 1.84-0.24 4.16-1.12 5.87-2.88l1.55-1.29-0.22 1.97z"
       id="path128" />
    <path
       d="m54 84.48c-16.78 0-30.44-13.68-30.44-30.49s13.65-30.49 30.44-30.49c16.78 0 30.44 13.68 30.44 30.49s-13.65 30.49-30.44 30.49zm0-58.62c-15.49 0-28.08 12.62-28.08 28.13s12.6 28.13 28.08 28.13c15.49 0 28.09-12.62 28.09-28.13s-12.6-28.13-28.09-28.13z"
       id="path130" />
  </g>
</svg>
