<?xml version="1.0" encoding="UTF-8" standalone="no"?>
<svg width="24px" height="24px" viewBox="0 0 24 24" version="1.1" xmlns="http://www.w3.org/2000/svg" xmlns:xlink="http://www.w3.org/1999/xlink">
    <!-- Generator: Sketch 3.8.3 (29802) - http://www.bohemiancoding.com/sketch -->
    <desc>Created with Sketch.</desc>
    <defs></defs>
    <path d="M8.75486741,9.36921312 C9.28832766,7.87570169 9.99688669,6.12486174 10.8699156,4.21978353 C11.0884313,3.74338159 11.3164626,3.25771373 11.557906,2.76304465 L12.0058048,1.84399532 L12.6911976,3.19843816 C12.8196722,3.44753322 12.9479879,3.69946102 13.0755084,3.95461866 C13.5864385,4.97471974 14.0922795,6.04239483 14.5800433,7.15115777 C15.5436698,9.3730254 16.3866144,11.5335789 16.8211807,13.6372396 L16.8875252,14.0152637 C16.8875252,14.0152637 16.4644626,14.4509484 16.3391421,14.5803539 C16.1567542,14.7605898 15.9548313,14.9457234 15.731359,15.1085657 C15.2806241,15.4420073 14.6964048,15.6154923 14.1816048,15.5921686 C13.6651614,15.5914803 13.1406071,15.4186307 12.7586288,15.1283949 C12.3709783,14.8452276 12.0998216,14.5122889 11.8356626,14.2291747 C10.8689084,12.9941036 9.38321922,13.0517113 8.64044091,13.4181397 C7.87733248,13.8262384 7.47319513,14.350479 7.45957103,14.3249844 C7.43987705,14.3295645 7.65775657,12.3549387 8.75486741,9.36921312 Z" id="Shape" stroke="none" fill="#FFFFFF" fill-rule="evenodd"></path>
    <path d="M16.7312458,16.5733528 C16.7026987,16.7944382 16.6619854,17.0158677 16.6150698,17.2379592 C16.5198071,17.6817715 16.382612,18.1249484 16.2047831,18.5598653 C15.5294626,20.2872492 14.0223831,21.7668882 12.2720313,21.9285657 C11.4250843,22.0119857 10.6090963,21.8141975 9.96677585,21.4553937 C9.32342164,21.0910832 8.84114452,20.6036416 8.48326019,20.1195621 C7.77003609,19.1383251 7.50524091,18.1953961 7.36783368,17.5613142 C7.23707947,16.9193961 7.23477344,16.5580507 7.22486019,16.5596655 C7.23731802,16.5612276 7.664012,16.0121806 8.17226501,15.583591 C8.66570115,15.1682913 9.74852524,14.7656199 10.9322048,15.3332516 C11.5057951,15.6290205 11.9424024,16.1617859 12.4317831,16.5509821 C12.9117012,16.962337 13.5232747,17.1242263 14.1908288,17.028893 C14.8502193,16.9426139 15.680759,16.6276246 16.2938698,16.0001879 L16.8481108,15.540597 L16.7693879,16.2429027 C16.7601108,16.3528762 16.7465132,16.4630085 16.7312458,16.5733528 Z" id="Shape" stroke="none" fill="#FFFFFF" fill-rule="evenodd"></path>
    <path d="M11.9293349,22.7903249 C5.91477349,22.7903249 1.0215759,17.9030686 1.0215759,11.8957713 C1.0215759,5.88847413 5.91477349,1.00116486 11.9293349,1.00116486 C17.9437903,1.00116486 22.8369615,5.88847413 22.8369615,11.8957713 C22.8369615,17.9030686 17.9437903,22.7903249 11.9293349,22.7903249 L11.9293349,22.7903249 L11.9293349,22.7903249 L11.9293349,22.7903249 L11.9293349,22.7903249 L11.9293349,22.7903249 L11.9293349,22.7903249 L11.9293349,22.7903249 Z M11.9293349,1.8427509 C6.37934457,1.8427509 1.8641494,6.35251263 1.8641494,11.8957713 C1.8641494,17.4390301 6.37934457,21.9487654 11.9293349,21.9487654 C17.4792723,21.9487654 21.994441,17.4390565 21.994441,11.8957713 C21.994441,6.35248616 17.4792723,1.8427509 11.9293349,1.8427509 L11.9293349,1.8427509 L11.9293349,1.8427509 L11.9293349,1.8427509 L11.9293349,1.8427509 L11.9293349,1.8427509 L11.9293349,1.8427509 L11.9293349,1.8427509 Z" id="Shape" stroke="none" fill="#FFFFFF" fill-rule="evenodd"></path>
    <rect id="Rectangle-1" stroke="none" fill="none" x="0" y="0" width="24" height="24"></rect>
</svg>
