<?xml version="1.0" encoding="UTF-8"?>
<svg id="vector" version="1.1" viewBox="0 0 108 108" xmlns="http://www.w3.org/2000/svg">
 <g>
  <path id="path" d="m54.13 54.13m-33.37 0c0-8.85 3.52-17.34 9.77-23.6s14.75-9.77 23.6-9.77 17.34 3.52 23.6 9.77 9.77 14.75 9.77 23.6-3.52 17.34-9.77 23.6-14.75 9.77-23.6 9.77-17.34-3.52-23.6-9.77-9.77-14.75-9.77-23.6" fill="#0288d1"/>
  <path id="inner-cast-shadow" d="m54.13 54.13m-29.36 0c0-7.7865 3.097-15.256 8.596-20.764 5.499-5.5078 12.978-8.596 20.764-8.596s15.256 3.097 20.764 8.596c5.5078 5.499 8.596 12.978 8.596 20.764 0 7.7865-3.097 15.256-8.596 20.764-5.499 5.5078-12.978 8.596-20.764 8.596s-15.256-3.097-20.764-8.596c-5.5078-5.499-8.596-12.978-8.596-20.764" fill="#0e3155" fill-opacity=".2" fill-rule="evenodd" stroke="#00000000"/>
  <path id="cast-shadow" d="m75.47 33.16 80.22 80.22c11.68 11.69 11.68 30.63 0 42.31-11.69 11.68-30.63 11.68-42.31 0l-80.22-80.22c-11.68-11.68-11.68-30.63 0-42.31s30.63-11.68 42.31 0z" display="none" fill="#0e3155" fill-opacity=".2" fill-rule="evenodd" stroke="#00000000"/>
 </g>
 <g fill="#232323" fill-opacity=".23" stroke="#00000000" stroke-opacity=".23">
  <path d="m42.52 60.79c-0.05 0.01 0.55-5.51 3.62-13.87 1.49-4.18 3.46-9.08 5.9-14.41 0.61-1.33 1.25-2.69 1.92-4.08l1.25-2.57 1.91 3.79c0.36 0.7 0.72 1.4 1.07 2.12 1.42 2.86 2.84 5.84 4.2 8.95 2.69 6.22 5.04 12.26 6.25 18.15l0.19 1.06s-1.18 1.22-1.53 1.58c-0.51 0.5-1.07 1.02-1.7 1.48-1.26 0.93-2.89 1.42-4.32 1.35-1.44 0-2.9-0.49-3.97-1.3-1.08-0.79-1.84-1.73-2.58-2.52-2.7-3.46-6.84-3.3-8.92-2.27-2.13 1.14-2.99 2.33-3.03 2.26 0.06 0.06 0.73-1.2 2.84-2.62 1.08-0.67 2.66-1.11 4.49-1 1.86 0.02 3.95 1.11 5.53 2.72 1.6 1.58 3.25 3.17 5.62 2.96 1.16-0.03 2.21-0.42 3.15-1.17 0.47-0.38 0.93-0.84 1.4-1.36 0.22-0.23 0.7-0.74 0.7-0.74s-3.83-11.42-6.48-17.56c-1.35-3.07-2.71-6.04-4.06-8.9-0.27-0.57-0.8-1.69-0.8-1.69s-0.52 1-1.18 2.3c-2.63 5.18-4.89 9.92-6.66 13.94-3.63 8.03-4.86 13.38-4.81 13.39z"/>
  <path d="m68.5 66.16c-0.03 0.31-0.06 0.62-0.11 0.92-0.08 0.62-0.19 1.24-0.32 1.86-0.27 1.24-0.65 2.48-1.14 3.7-1.88 4.83-6.09 8.98-10.97 9.43-2.36 0.23-4.64-0.32-6.43-1.32-1.79-1.02-3.14-2.38-4.14-3.74-1.99-2.75-2.73-5.39-3.11-7.16-0.36-1.8-0.37-2.81-0.4-2.8 0.15-0.14 0.43 4.32 4.51 9.15 2 2.32 5.43 4.37 9.29 3.72 3.82-0.57 7.18-3.96 8.88-8.25 0.36-0.88 0.89-2.67 0.89-2.67s-1.3 1.39-3.87 1.53c-2.4 0.27-4.88-0.67-6.32-2.16-1.48-1.42-2.44-2.84-3.69-3.63-2.52-1.57-5.42-1.01-6.82-0.08-1.5 0.95-2.17 1.75-2.2 1.72 0.04 0.03 0.55-0.85 1.97-2.05 1.38-1.16 4.4-2.29 7.7-0.7 1.6 0.83 2.82 2.32 4.18 3.41 1.34 1.15 3.05 1.6 4.91 1.34 1.84-0.24 4.16-1.12 5.87-2.88l1.55-1.29-0.22 1.97z"/>
  <path d="m55 84.48c-16.78 0-30.44-13.68-30.44-30.49s13.65-30.49 30.44-30.49c16.78 0 30.44 13.68 30.44 30.49s-13.65 30.49-30.44 30.49zm0-58.62c-15.49 0-28.08 12.62-28.08 28.13s12.6 28.13 28.08 28.13c15.49 0 28.09-12.62 28.09-28.13s-12.6-28.13-28.09-28.13z"/>
 </g>
 <g fill="#fff" stroke="#00000000">
  <path d="m41.52 60.79c-0.05 0.01 0.55-5.51 3.62-13.87 1.49-4.18 3.46-9.08 5.9-14.41 0.61-1.33 1.25-2.69 1.92-4.08l1.25-2.57 1.91 3.79c0.36 0.7 0.72 1.4 1.07 2.12 1.42 2.86 2.84 5.84 4.2 8.95 2.69 6.22 5.04 12.26 6.25 18.15l0.19 1.06s-1.18 1.22-1.53 1.58c-0.51 0.5-1.07 1.02-1.7 1.48-1.26 0.93-2.89 1.42-4.32 1.35-1.44 0-2.9-0.49-3.97-1.3-1.08-0.79-1.84-1.73-2.58-2.52-2.7-3.46-6.84-3.3-8.92-2.27-2.13 1.14-2.99 2.33-3.03 2.26 0.06 0.06 0.73-1.2 2.84-2.62 1.08-0.67 2.66-1.11 4.49-1 1.86 0.02 3.95 1.11 5.53 2.72 1.6 1.58 3.25 3.17 5.62 2.96 1.16-0.03 2.21-0.42 3.15-1.17 0.47-0.38 0.93-0.84 1.4-1.36 0.22-0.23 0.7-0.74 0.7-0.74s-3.83-11.42-6.48-17.56c-1.35-3.07-2.71-6.04-4.06-8.9-0.27-0.57-0.8-1.69-0.8-1.69s-0.52 1-1.18 2.3c-2.63 5.18-4.89 9.92-6.66 13.94-3.63 8.03-4.86 13.38-4.81 13.39z"/>
  <path d="m67.5 66.16c-0.03 0.31-0.06 0.62-0.11 0.92-0.08 0.62-0.19 1.24-0.32 1.86-0.27 1.24-0.65 2.48-1.14 3.7-1.88 4.83-6.09 8.98-10.97 9.43-2.36 0.23-4.64-0.32-6.43-1.32-1.79-1.02-3.14-2.38-4.14-3.74-1.99-2.75-2.73-5.39-3.11-7.16-0.36-1.8-0.37-2.81-0.4-2.8 0.15-0.14 0.43 4.32 4.51 9.15 2 2.32 5.43 4.37 9.29 3.72 3.82-0.57 7.18-3.96 8.88-8.25 0.36-0.88 0.89-2.67 0.89-2.67s-1.3 1.39-3.87 1.53c-2.4 0.27-4.88-0.67-6.32-2.16-1.48-1.42-2.44-2.84-3.69-3.63-2.52-1.57-5.42-1.01-6.82-0.08-1.5 0.95-2.17 1.75-2.2 1.72 0.04 0.03 0.55-0.85 1.97-2.05 1.38-1.16 4.4-2.29 7.7-0.7 1.6 0.83 2.82 2.32 4.18 3.41 1.34 1.15 3.05 1.6 4.91 1.34 1.84-0.24 4.16-1.12 5.87-2.88l1.55-1.29-0.22 1.97z"/>
  <path d="m54 84.48c-16.78 0-30.44-13.68-30.44-30.49s13.65-30.49 30.44-30.49c16.78 0 30.44 13.68 30.44 30.49s-13.65 30.49-30.44 30.49zm0-58.62c-15.49 0-28.08 12.62-28.08 28.13s12.6 28.13 28.08 28.13c15.49 0 28.09-12.62 28.09-28.13s-12.6-28.13-28.09-28.13z"/>
 </g>
</svg>
